<svg width="36" height="36" viewBox="0 0 36 36" fill="none" xmlns="http://www.w3.org/2000/svg">
<path d="M0 18C0 8.05887 8.05887 0 18 0V0C27.9411 0 36 8.05887 36 18V18C36 27.9411 27.9411 36 18 36V36C8.05887 36 0 27.9411 0 18V18Z" fill="#232323"/>
<path d="M23.8333 16.3335C24.7533 16.3335 25.5 17.0802 25.5 18.0002C25.5 18.9202 24.7533 19.6668 23.8333 19.6668C22.9133 19.6668 22.1667 18.9202 22.1667 18.0002C22.1667 17.0802 22.9133 16.3335 23.8333 16.3335Z" fill="white"/>
<path d="M18 16.3335C18.92 16.3335 19.6667 17.0802 19.6667 18.0002C19.6667 18.9202 18.92 19.6668 18 19.6668C17.08 19.6668 16.3333 18.9202 16.3333 18.0002C16.3333 17.0802 17.08 16.3335 18 16.3335Z" fill="white"/>
<path d="M13.8333 18.0002C13.8333 17.0802 13.0867 16.3335 12.1667 16.3335C11.2467 16.3335 10.5 17.0802 10.5 18.0002C10.5 18.9202 11.2467 19.6668 12.1667 19.6668C13.0867 19.6668 13.8333 18.9202 13.8333 18.0002Z" fill="white"/>
</svg>
