<svg preserveAspectRatio="none" width="100%" height="100%" overflow="visible" style="display: block;" viewBox="0 0 18.8843 19.75" fill="none" xmlns="http://www.w3.org/2000/svg">
<g id="Vector">
<path d="M8.63439 2.75H2.39513C1.72027 5.42334 2.03437 7.55849 2.43321 9.89453C2.82078 12.1645 3.28631 14.6278 2.82872 17.75H14.7945C14.9472 16.6728 14.9398 15.6563 14.8775 14.6787C14.8047 13.5352 14.6344 12.239 14.6344 11.167H16.6344C16.6344 12.1773 16.7859 13.174 16.8736 14.5508C16.957 15.8579 16.961 17.3353 16.6129 18.96C16.5138 19.4207 16.1057 19.75 15.6344 19.75H1.63439C1.33271 19.7498 1.04677 19.6135 0.857041 19.3789C0.667267 19.1442 0.593718 18.8352 0.656846 18.54C1.36173 15.25 0.900222 12.7999 0.461534 10.2305C0.0198736 7.64361 -0.393938 4.94422 0.679307 1.45605C0.808357 1.03667 1.19564 0.750269 1.63439 0.75H8.63439V2.75Z" fill="currentColor"/>
<path fill-rule="evenodd" clip-rule="evenodd" d="M15.1344 0C15.3996 2.71475e-05 15.6539 0.105461 15.8414 0.292969L18.5914 3.04297C18.9819 3.43348 18.9819 4.06652 18.5914 4.45703L12.4664 10.582C12.3568 10.6915 12.2228 10.7742 12.0758 10.8232L7.95079 12.1982C7.59159 12.3178 7.19508 12.2247 6.92735 11.957C6.65963 11.6893 6.56658 11.2928 6.68614 10.9336L8.06114 6.80859L8.10411 6.70117C8.15316 6.5964 8.22019 6.50023 8.30235 6.41797L14.4274 0.292969L14.5006 0.226562C14.6785 0.080831 14.9024 8.40513e-05 15.1344 0ZM9.88243 7.66504L9.21446 9.66797L11.2203 9L16.4703 3.75L15.1344 2.41406L9.88243 7.66504Z" fill="currentColor"/>
</g>
</svg>
