<svg width="40" height="40" viewBox="0 0 40 40" fill="none" xmlns="http://www.w3.org/2000/svg">
<path fill-rule="evenodd" clip-rule="evenodd" d="M20.0013 16.0002C22.1982 16.0002 23.9612 17.8009 23.9612 20C23.9612 22.1991 22.1982 23.9998 20.0013 23.9998C17.8043 23.9998 16.0413 22.1991 16.0413 20C16.0413 17.8009 17.8043 16.0002 20.0013 16.0002ZM20.0013 17.6668C18.7448 17.6668 17.708 18.7013 17.708 20C17.708 21.2987 18.7448 22.3332 20.0013 22.3332C21.2577 22.3332 22.2946 21.2987 22.2946 20C22.2946 18.7013 21.2577 17.6668 20.0013 17.6668Z" fill="#F0F0F0"/>
<path fill-rule="evenodd" clip-rule="evenodd" d="M21.1406 11.25C22.2765 11.25 23.1791 12.1797 23.1792 13.304C23.1792 13.4487 23.273 13.6359 23.4917 13.7614C23.5298 13.7833 23.5679 13.8056 23.6056 13.8281C23.8224 13.9578 24.0202 13.942 24.133 13.8761C25.1144 13.3022 26.3641 13.6473 26.9243 14.6297L28.0636 16.6276C28.6204 17.6044 28.2936 18.8583 27.3182 19.4287C27.2024 19.4965 27.0847 19.6699 27.0871 19.9333C27.0873 19.9555 27.0879 19.9777 27.0879 20C27.0879 20.0095 27.0871 20.0191 27.0871 20.0285C27.087 20.0413 27.0872 20.054 27.0871 20.0667C27.0847 20.3301 27.2024 20.5035 27.3182 20.5713C28.2936 21.1417 28.6203 22.3956 28.0636 23.3724L26.9243 25.3703C26.3641 26.3528 25.1144 26.6978 24.133 26.1239C24.0202 26.058 23.8224 26.0422 23.6056 26.1719L23.4917 26.2386C23.273 26.3641 23.1792 26.5513 23.1792 26.696C23.1791 27.8203 22.2765 28.75 21.1406 28.75H18.862C17.7261 28.75 16.8235 27.8203 16.8234 26.696C16.8234 26.5694 16.7516 26.4101 16.5874 26.2882L16.5109 26.2386C16.4728 26.2167 16.4347 26.1944 16.397 26.1719C16.1802 26.0421 15.9824 26.058 15.8696 26.1239C14.8882 26.6978 13.6384 26.3527 13.0783 25.3703L11.9389 23.3724C11.3822 22.3956 11.709 21.1417 12.6844 20.5713C12.8001 20.5034 12.9179 20.3301 12.9155 20.0667C12.9153 20.0445 12.9147 20.0223 12.9147 20C12.9147 19.9777 12.9153 19.9555 12.9155 19.9333C12.9179 19.6699 12.8001 19.4966 12.6844 19.4287C11.709 18.8583 11.3822 17.6044 11.9389 16.6276L13.0783 14.6297C13.6384 13.6473 14.8882 13.3022 15.8696 13.8761C15.9823 13.942 16.1802 13.9579 16.397 13.8281C16.4346 13.8056 16.4727 13.7833 16.5109 13.7614C16.7296 13.6359 16.8234 13.4487 16.8234 13.304C16.8235 12.1797 17.7261 11.25 18.862 11.25L21.1406 11.25ZM18.862 12.9167C18.6666 12.9167 18.4901 13.08 18.4901 13.304C18.4901 14.1539 17.9759 14.8429 17.3402 15.2075C17.311 15.2242 17.2819 15.2415 17.2531 15.2588C16.6234 15.6356 15.7669 15.7469 15.0281 15.3149C14.8563 15.2145 14.6319 15.2696 14.526 15.4549L13.3867 17.4528C13.2774 17.6447 13.3467 17.8854 13.525 17.9899C14.2596 18.4195 14.5887 19.2168 14.5822 19.9479C14.582 19.9651 14.5814 19.9828 14.5814 20C14.5814 20.0173 14.582 20.0349 14.5822 20.0521C14.5887 20.7832 14.2596 21.5805 13.525 22.0101C13.3467 22.1146 13.2774 22.3553 13.3867 22.5472L14.526 24.5451C14.6319 24.7304 14.8563 24.7855 15.0281 24.6851C15.7669 24.2531 16.6234 24.3644 17.2531 24.7412C17.2819 24.7584 17.311 24.7758 17.3402 24.7925C17.9759 25.1571 18.4901 25.8461 18.4901 26.696C18.4901 26.92 18.6666 27.0833 18.862 27.0833H21.1406C21.336 27.0833 21.5124 26.92 21.5125 26.696C21.5125 25.8461 22.0267 25.1571 22.6624 24.7925C22.6916 24.7758 22.7207 24.7584 22.7495 24.7412C23.3792 24.3644 24.2357 24.253 24.9744 24.6851C25.1462 24.7855 25.3707 24.7304 25.4765 24.5451L26.6159 22.5472C26.7252 22.3553 26.6558 22.1146 26.4775 22.0101C25.7429 21.5805 25.4139 20.7832 25.4204 20.0521C25.4205 20.0423 25.4212 20.0317 25.4212 20.022C25.4212 20.0146 25.4212 20.0072 25.4212 20C25.4212 19.9829 25.4205 19.9658 25.4204 19.9487C25.4139 19.2176 25.7429 18.4195 26.4775 17.9899C26.6558 17.8854 26.7252 17.6447 26.6159 17.4528L25.4765 15.4549C25.3707 15.2696 25.1462 15.2145 24.9744 15.3149C24.2357 15.747 23.3792 15.6356 22.7495 15.2588C22.7207 15.2416 22.6916 15.2242 22.6624 15.2075C22.0267 14.8429 21.5125 14.1539 21.5125 13.304C21.5124 13.08 21.336 12.9167 21.1406 12.9167L18.862 12.9167Z" fill="#F0F0F0"/>
</svg>
