<svg width="48" height="48" viewBox="0 0 48 48" fill="none" xmlns="http://www.w3.org/2000/svg">
<path d="M39.978 2.49399e-07H8.022C6.96863 -0.000262436 5.92553 0.206987 4.95226 0.609912C3.979 1.01284 3.09465 1.60355 2.34971 2.3483C1.60478 3.09306 1.01384 3.97727 0.610675 4.95043C0.207507 5.92359 -3.27538e-08 6.96664 0 8.02001V39.976C-6.6095e-08 42.1038 0.84511 44.1444 2.34947 45.6491C3.85383 47.1539 5.89425 47.9995 8.022 48H39.978C42.1058 47.9995 44.1462 47.1539 45.6505 45.6491C47.1549 44.1444 48 42.1038 48 39.976V8.02001C48 6.96664 47.7925 5.92359 47.3893 4.95043C46.9862 3.97727 46.3952 3.09306 45.6503 2.3483C44.9054 1.60355 44.021 1.01284 43.0477 0.609912C42.0745 0.206987 41.0314 -0.000262436 39.978 2.49399e-07ZM39.272 36.742C39.272 37.4132 39.0055 38.0569 38.5311 38.5317C38.0567 39.0065 37.4132 39.2735 36.742 39.274H11.262C10.9296 39.274 10.6004 39.2085 10.2933 39.0812C9.98626 38.954 9.70727 38.7674 9.47231 38.5323C9.23736 38.2971 9.05104 38.018 8.92401 37.7108C8.79698 37.4036 8.73174 37.0744 8.732 36.742V11.26C8.73174 10.9276 8.79698 10.5984 8.92401 10.2912C9.05104 9.98401 9.23736 9.70488 9.47231 9.46974C9.70727 9.23459 9.98626 9.04805 10.2933 8.92078C10.6004 8.79351 10.9296 8.728 11.262 8.728H36.742C37.4132 8.72853 38.0567 8.99553 38.5311 9.47031C39.0055 9.9451 39.272 10.5888 39.272 11.26V36.742Z" fill="white"/>
<path d="M18.9 30.512C18.7088 30.512 18.5195 30.4742 18.343 30.4009C18.1664 30.3276 18.0061 30.2201 17.8712 30.0846C17.7362 29.9491 17.6294 29.7884 17.5568 29.6115C17.4842 29.4346 17.4472 29.2452 17.448 29.054V18.882C17.4469 18.6907 17.4837 18.501 17.5562 18.3239C17.6287 18.1468 17.7355 17.9858 17.8704 17.8501C18.0054 17.7144 18.1658 17.6068 18.3425 17.5333C18.5192 17.4598 18.7086 17.422 18.9 17.422H29.1C29.2913 17.4223 29.4806 17.4603 29.6572 17.5338C29.8338 17.6074 29.9941 17.7151 30.129 17.8507C30.2638 17.9863 30.3706 18.1472 30.4432 18.3242C30.5158 18.5012 30.5528 18.6907 30.552 18.882V29.054C30.5525 29.2451 30.5154 29.4345 30.4427 29.6112C30.37 29.7879 30.2631 29.9486 30.1283 30.084C29.9934 30.2194 29.8332 30.3269 29.6567 30.4004C29.4803 30.4738 29.2911 30.5118 29.1 30.512H18.9Z" fill="white"/>
</svg>
